<mxfile host="app.diagrams.net" modified="2024-01-06T20:58:45.196Z" agent="Mozilla/5.0 (Windows NT 10.0; Win64; x64) AppleWebKit/537.36 (KHTML, like Gecko) Chrome/120.0.0.0 Safari/537.36" etag="vMUQmRxPwfU7PMmROOhS" version="22.1.17" type="device">
  <diagram id="C5RBs43oDa-KdzZeNtuy" name="Page-1">
    <mxGraphModel dx="1707" dy="444" grid="1" gridSize="10" guides="1" tooltips="1" connect="1" arrows="1" fold="1" page="1" pageScale="1" pageWidth="827" pageHeight="1169" math="0" shadow="0">
      <root>
        <mxCell id="WIyWlLk6GJQsqaUBKTNV-0" />
        <mxCell id="WIyWlLk6GJQsqaUBKTNV-1" parent="WIyWlLk6GJQsqaUBKTNV-0" />
        <mxCell id="3nQMh7i8aFdYDGyzML7i-8" value="" style="edgeStyle=orthogonalEdgeStyle;rounded=0;orthogonalLoop=1;jettySize=auto;html=1;exitX=0.5;exitY=1;exitDx=0;exitDy=0;" parent="WIyWlLk6GJQsqaUBKTNV-1" source="WIyWlLk6GJQsqaUBKTNV-6" target="3nQMh7i8aFdYDGyzML7i-7" edge="1">
          <mxGeometry relative="1" as="geometry">
            <mxPoint x="220" y="420" as="sourcePoint" />
          </mxGeometry>
        </mxCell>
        <mxCell id="3nQMh7i8aFdYDGyzML7i-24" value="TRUE" style="edgeLabel;html=1;align=center;verticalAlign=middle;resizable=0;points=[];" parent="3nQMh7i8aFdYDGyzML7i-8" vertex="1" connectable="0">
          <mxGeometry x="-0.08" y="1" relative="1" as="geometry">
            <mxPoint as="offset" />
          </mxGeometry>
        </mxCell>
        <mxCell id="3nQMh7i8aFdYDGyzML7i-20" value="" style="edgeStyle=orthogonalEdgeStyle;rounded=0;orthogonalLoop=1;jettySize=auto;html=1;" parent="WIyWlLk6GJQsqaUBKTNV-1" source="WIyWlLk6GJQsqaUBKTNV-6" target="3nQMh7i8aFdYDGyzML7i-19" edge="1">
          <mxGeometry relative="1" as="geometry" />
        </mxCell>
        <mxCell id="3nQMh7i8aFdYDGyzML7i-23" value="FALSE" style="edgeLabel;html=1;align=center;verticalAlign=middle;resizable=0;points=[];" parent="3nQMh7i8aFdYDGyzML7i-20" vertex="1" connectable="0">
          <mxGeometry x="-0.2167" y="-1" relative="1" as="geometry">
            <mxPoint as="offset" />
          </mxGeometry>
        </mxCell>
        <mxCell id="WIyWlLk6GJQsqaUBKTNV-6" value="index &amp;lt; size" style="rhombus;whiteSpace=wrap;html=1;shadow=0;fontFamily=Helvetica;fontSize=12;align=center;strokeWidth=1;spacing=6;spacingTop=-4;" parent="WIyWlLk6GJQsqaUBKTNV-1" vertex="1">
          <mxGeometry x="130" y="310" width="180" height="80" as="geometry" />
        </mxCell>
        <mxCell id="3nQMh7i8aFdYDGyzML7i-4" value="" style="edgeStyle=orthogonalEdgeStyle;rounded=0;orthogonalLoop=1;jettySize=auto;html=1;" parent="WIyWlLk6GJQsqaUBKTNV-1" source="3nQMh7i8aFdYDGyzML7i-0" target="3nQMh7i8aFdYDGyzML7i-1" edge="1">
          <mxGeometry relative="1" as="geometry" />
        </mxCell>
        <mxCell id="3nQMh7i8aFdYDGyzML7i-0" value="START" style="ellipse;whiteSpace=wrap;html=1;" parent="WIyWlLk6GJQsqaUBKTNV-1" vertex="1">
          <mxGeometry x="160" y="40" width="120" height="40" as="geometry" />
        </mxCell>
        <mxCell id="3nQMh7i8aFdYDGyzML7i-3" value="" style="edgeStyle=orthogonalEdgeStyle;rounded=0;orthogonalLoop=1;jettySize=auto;html=1;" parent="WIyWlLk6GJQsqaUBKTNV-1" source="3nQMh7i8aFdYDGyzML7i-1" target="3nQMh7i8aFdYDGyzML7i-2" edge="1">
          <mxGeometry relative="1" as="geometry" />
        </mxCell>
        <mxCell id="3nQMh7i8aFdYDGyzML7i-1" value="size&lt;br&gt;array [size]" style="shape=parallelogram;perimeter=parallelogramPerimeter;whiteSpace=wrap;html=1;fixedSize=1;" parent="WIyWlLk6GJQsqaUBKTNV-1" vertex="1">
          <mxGeometry x="145" y="110" width="150" height="60" as="geometry" />
        </mxCell>
        <mxCell id="3nQMh7i8aFdYDGyzML7i-5" value="" style="edgeStyle=orthogonalEdgeStyle;rounded=0;orthogonalLoop=1;jettySize=auto;html=1;" parent="WIyWlLk6GJQsqaUBKTNV-1" source="3nQMh7i8aFdYDGyzML7i-2" target="WIyWlLk6GJQsqaUBKTNV-6" edge="1">
          <mxGeometry relative="1" as="geometry" />
        </mxCell>
        <mxCell id="3nQMh7i8aFdYDGyzML7i-2" value="num=3&lt;br&gt;index=0&lt;br&gt;size2=0&lt;br&gt;index2=0" style="rounded=0;whiteSpace=wrap;html=1;" parent="WIyWlLk6GJQsqaUBKTNV-1" vertex="1">
          <mxGeometry x="147.5" y="208" width="145" height="70" as="geometry" />
        </mxCell>
        <mxCell id="3nQMh7i8aFdYDGyzML7i-10" value="" style="edgeStyle=orthogonalEdgeStyle;rounded=0;orthogonalLoop=1;jettySize=auto;html=1;" parent="WIyWlLk6GJQsqaUBKTNV-1" source="3nQMh7i8aFdYDGyzML7i-7" target="3nQMh7i8aFdYDGyzML7i-9" edge="1">
          <mxGeometry relative="1" as="geometry" />
        </mxCell>
        <mxCell id="3nQMh7i8aFdYDGyzML7i-25" value="TRUE" style="edgeLabel;html=1;align=center;verticalAlign=middle;resizable=0;points=[];" parent="3nQMh7i8aFdYDGyzML7i-10" vertex="1" connectable="0">
          <mxGeometry y="1" relative="1" as="geometry">
            <mxPoint as="offset" />
          </mxGeometry>
        </mxCell>
        <mxCell id="3nQMh7i8aFdYDGyzML7i-16" value="" style="edgeStyle=orthogonalEdgeStyle;rounded=0;orthogonalLoop=1;jettySize=auto;html=1;" parent="WIyWlLk6GJQsqaUBKTNV-1" source="3nQMh7i8aFdYDGyzML7i-7" target="3nQMh7i8aFdYDGyzML7i-15" edge="1">
          <mxGeometry relative="1" as="geometry" />
        </mxCell>
        <mxCell id="3nQMh7i8aFdYDGyzML7i-26" value="FALSE" style="edgeLabel;html=1;align=center;verticalAlign=middle;resizable=0;points=[];" parent="3nQMh7i8aFdYDGyzML7i-16" vertex="1" connectable="0">
          <mxGeometry x="-0.1529" relative="1" as="geometry">
            <mxPoint as="offset" />
          </mxGeometry>
        </mxCell>
        <mxCell id="3nQMh7i8aFdYDGyzML7i-7" value="array [index].size &amp;lt;= num" style="rhombus;whiteSpace=wrap;html=1;" parent="WIyWlLk6GJQsqaUBKTNV-1" vertex="1">
          <mxGeometry x="115" y="440" width="210" height="90" as="geometry" />
        </mxCell>
        <mxCell id="3nQMh7i8aFdYDGyzML7i-12" value="" style="edgeStyle=orthogonalEdgeStyle;rounded=0;orthogonalLoop=1;jettySize=auto;html=1;" parent="WIyWlLk6GJQsqaUBKTNV-1" source="3nQMh7i8aFdYDGyzML7i-9" target="3nQMh7i8aFdYDGyzML7i-11" edge="1">
          <mxGeometry relative="1" as="geometry" />
        </mxCell>
        <mxCell id="3nQMh7i8aFdYDGyzML7i-9" value="size2 = size2 + 1" style="whiteSpace=wrap;html=1;" parent="WIyWlLk6GJQsqaUBKTNV-1" vertex="1">
          <mxGeometry x="160" y="585" width="120" height="35" as="geometry" />
        </mxCell>
        <mxCell id="3nQMh7i8aFdYDGyzML7i-17" style="edgeStyle=orthogonalEdgeStyle;rounded=0;orthogonalLoop=1;jettySize=auto;html=1;entryX=0.5;entryY=1;entryDx=0;entryDy=0;" parent="WIyWlLk6GJQsqaUBKTNV-1" source="3nQMh7i8aFdYDGyzML7i-11" target="3nQMh7i8aFdYDGyzML7i-15" edge="1">
          <mxGeometry relative="1" as="geometry" />
        </mxCell>
        <mxCell id="3nQMh7i8aFdYDGyzML7i-11" value="array2 [index2] = array [index]&lt;br&gt;index2 = index2 + 1" style="whiteSpace=wrap;html=1;align=center;" parent="WIyWlLk6GJQsqaUBKTNV-1" vertex="1">
          <mxGeometry x="125" y="650" width="190" height="60" as="geometry" />
        </mxCell>
        <mxCell id="3nQMh7i8aFdYDGyzML7i-18" style="edgeStyle=orthogonalEdgeStyle;rounded=0;orthogonalLoop=1;jettySize=auto;html=1;entryX=0;entryY=0.5;entryDx=0;entryDy=0;exitX=0.5;exitY=0;exitDx=0;exitDy=0;" parent="WIyWlLk6GJQsqaUBKTNV-1" source="3nQMh7i8aFdYDGyzML7i-15" target="WIyWlLk6GJQsqaUBKTNV-6" edge="1">
          <mxGeometry relative="1" as="geometry">
            <mxPoint x="-70" y="395" as="sourcePoint" />
            <mxPoint x="30" y="290" as="targetPoint" />
          </mxGeometry>
        </mxCell>
        <mxCell id="3nQMh7i8aFdYDGyzML7i-15" value="index = index + 1" style="whiteSpace=wrap;html=1;" parent="WIyWlLk6GJQsqaUBKTNV-1" vertex="1">
          <mxGeometry x="-90" y="462.5" width="120" height="45" as="geometry" />
        </mxCell>
        <mxCell id="3nQMh7i8aFdYDGyzML7i-22" value="" style="edgeStyle=orthogonalEdgeStyle;rounded=0;orthogonalLoop=1;jettySize=auto;html=1;" parent="WIyWlLk6GJQsqaUBKTNV-1" source="3nQMh7i8aFdYDGyzML7i-19" target="3nQMh7i8aFdYDGyzML7i-21" edge="1">
          <mxGeometry relative="1" as="geometry" />
        </mxCell>
        <mxCell id="3nQMh7i8aFdYDGyzML7i-19" value="array2" style="shape=document;whiteSpace=wrap;html=1;boundedLbl=1;" parent="WIyWlLk6GJQsqaUBKTNV-1" vertex="1">
          <mxGeometry x="400" y="310" width="120" height="80" as="geometry" />
        </mxCell>
        <mxCell id="3nQMh7i8aFdYDGyzML7i-21" value="FINISH" style="rounded=1;whiteSpace=wrap;html=1;" parent="WIyWlLk6GJQsqaUBKTNV-1" vertex="1">
          <mxGeometry x="400" y="447.5" width="120" height="60" as="geometry" />
        </mxCell>
      </root>
    </mxGraphModel>
  </diagram>
</mxfile>
